<svg xmlns="http://www.w3.org/2000/svg" viewBox="0 0 64 64" role="img" aria-label="Style Saplings favicon">
  <g stroke="#3f4038" stroke-width="3.2" stroke-linecap="round" stroke-linejoin="round">
    <path d="M32 31v22" fill="none"/>
    <path d="M31.5 43c-7.5-1.4-11.5-5-12.7-10.4 6.7-.9 11.2 1 13.3 5.8" fill="#7c8770"/>
    <path d="M32.5 46c6.8-1.1 10.9-4 12.6-8.8-6.3-1.2-10.8.3-13.1 4.7" fill="#7c8770"/>
    <path d="M32 10c4.6-7 12.2-2.4 10.4 4.3 7.4-2.1 10.3 6.3 4.1 10.2 6 5.1.8 12.6-6.4 9.2-2.1 7.2-11 7-13-.2-7.6 2.9-12.1-5.3-6.3-10.4-6.4-4.3-2.4-12.6 4.9-10.4C20 7.6 28.1 3 32 10z" fill="#e6cf8c"/>
    <circle cx="32" cy="22" r="6.2" fill="#f1dca1"/>
  </g>
</svg>
